# xmcd CD database file
#
# Track frame offsets:
#	150
#	20675
#	46550
#	67175
#
# Disc length: 1173 seconds
#
# Revision: 1
# Processed by: cddbd v1.4PL0 Copyright (c) Steve Scherf et al.
# Submitted via: CDex 1.50beta8
#
DISCID=2e049304
DTITLE=Uncle Sam - I Don't Ever Want To See You Again
DYEAR=1900
DGENRE=
TTITLE0=Radio Edit
TTITLE1=lp version
TTITLE2=Instrumental
TTITLE3=A Cappella
EXTD=CD Single
EXTT0=
EXTT1=
EXTT2=
EXTT3=
PLAYORDER=
